<svg width="23" height="23" viewBox="0 0 23 23" fill="none" xmlns="http://www.w3.org/2000/svg">
<rect width="23" height="23" rx="5" fill="#E1E3F9"/>
<path d="M11.3652 17L6.75977 6.97168V14.9346C6.75977 15.667 6.83887 16.124 6.99707 16.3057C7.21387 16.5518 7.55664 16.6748 8.02539 16.6748H8.44727V17H4.29883V16.6748H4.7207C5.22461 16.6748 5.58203 16.5225 5.79297 16.2178C5.92188 16.0303 5.98633 15.6025 5.98633 14.9346V7.14746C5.98633 6.62012 5.92773 6.23926 5.81055 6.00488C5.72852 5.83496 5.57617 5.69434 5.35352 5.58301C5.13672 5.46582 4.78516 5.40723 4.29883 5.40723V5.08203H7.67383L11.998 14.4072L16.252 5.08203H19.627V5.40723H19.2139C18.7041 5.40723 18.3438 5.55957 18.1328 5.86426C18.0039 6.05176 17.9395 6.47949 17.9395 7.14746V14.9346C17.9395 15.667 18.0215 16.124 18.1855 16.3057C18.4023 16.5518 18.7451 16.6748 19.2139 16.6748H19.627V17H14.5645V16.6748H14.9863C15.4961 16.6748 15.8535 16.5225 16.0586 16.2178C16.1875 16.0303 16.252 15.6025 16.252 14.9346V6.97168L11.6553 17H11.3652Z" fill="black"/>
</svg>
