<svg width="40" height="41" viewBox="0 0 40 41" fill="none" xmlns="http://www.w3.org/2000/svg">
<rect width="40" height="40" rx="5" fill="#FFC501"/>
<path d="M18.7305 33L9.51953 12.9434V28.8691C9.51953 30.334 9.67773 31.248 9.99414 31.6113C10.4277 32.1035 11.1133 32.3496 12.0508 32.3496H12.8945V33H4.59766V32.3496H5.44141C6.44922 32.3496 7.16406 32.0449 7.58594 31.4355C7.84375 31.0605 7.97266 30.2051 7.97266 28.8691V13.2949C7.97266 12.2402 7.85547 11.4785 7.62109 11.0098C7.45703 10.6699 7.15234 10.3887 6.70703 10.166C6.27344 9.93164 5.57031 9.81445 4.59766 9.81445V9.16406H11.3477L19.9961 27.8145L28.5039 9.16406H35.2539V9.81445H34.4277C33.4082 9.81445 32.6875 10.1191 32.2656 10.7285C32.0078 11.1035 31.8789 11.959 31.8789 13.2949V28.8691C31.8789 30.334 32.043 31.248 32.3711 31.6113C32.8047 32.1035 33.4902 32.3496 34.4277 32.3496H35.2539V33H25.1289V32.3496H25.9727C26.9922 32.3496 27.707 32.0449 28.1172 31.4355C28.375 31.0605 28.5039 30.2051 28.5039 28.8691V12.9434L19.3105 33H18.7305Z" fill="black"/>
</svg>
